<?xml version="1.0" encoding="UTF-8"?> <!-- Generator: Adobe Illustrator 24.2.3, SVG Export Plug-In . SVG Version: 6.00 Build 0) --> <svg xmlns="http://www.w3.org/2000/svg" xmlns:xlink="http://www.w3.org/1999/xlink" id="Шар_1" x="0px" y="0px" viewBox="0 0 1280 1280" style="enable-background:new 0 0 1280 1280;" xml:space="preserve"> <style type="text/css"> .st0{fill:#E6E6E6;} .st1{fill:#FFFFFF;stroke:#000000;stroke-width:0.25;stroke-miterlimit:10;} </style> <g transform="translate(0.000000,1280.000000) scale(0.100000,-0.100000)"> <path class="st0" d="M7678,10392c-12-15-32-44-42-64c-11-20-30-41-43-47s-70-11-127-11c-88,0-105,3-120,19c-9,10-34,26-55,36 c-38,17-40,17-64-1c-35-27-78-107-85-161c-7-43-11-48-57-73c-132-70-179-77-235-32c-36,30-44,32-117,32c-44,0-84,5-89,10 c-6,6-36,11-67,13c-54,2-58,1-101-42l-46-45l-28,27c-33,32-76,35-139,9c-58-24-84-48-128-117c-36-57-125-178-189-259 c-30-37-31-41-31-145c0-84,5-121,24-181c44-138,51-162,45-171c-3-5-22-9-43-9c-34,0-39,4-55,40c-18,41-89,110-141,138 c-20,10-72,18-157,23c-107,6-132,10-154,28c-34,26-48,26-86,0c-22-16-38-20-64-16c-42,7-60-8-94-76c-19-38-26-44-41-37 c-20,11-34,49-49,130c-15,80-38,127-71,140c-24,10-35,8-81-13c-29-14-67-28-84-31c-33-7-77-49-109-103c-24-40-33-41-41-5 c-4,15-15,44-25,64c-24,47-61,55-157,35l-70-14l-22,46c-34,74-36,76-62,79c-19,2-36-11-82-63c-32-36-62-65-66-65c-3,0-13,12-20,28 c-22,44-42,62-65,62c-31,0-41-16-55-87c-13-66-19-73-40-48c-10,13-10,19,2,33c42,47,26,102-30,102c-18,0-50-10-71-22l-38-22l-58,24 c-32,13-74,23-92,23c-34-1-35,1-48,63c-10,53-29,62-141,66c-93,3-104,5-144,33c-45,31-91,38-158,23c-28-7-34-5-41,15 c-12,32-41,44-161,67c-58,12-114,26-126,31c-12,7-52,8-100,5c-283-22-315-20-413,32l-45,23l-65-27c-36-15-72-32-80-38 c-18-14-183-11-209,3c-15,8-28,7-48-3c-16-8-73-30-126-51c-113-43-123-51-166-127c-37-67-54-90-100-135c-27-27-41-33-76-33 c-34,0-48,6-71,30c-39,41-95,42-135,2l-27-28l1-180c2-198-2-183,79-299c26-35,40-69,44-97c9-79,61-160,144-221l24-18l-38,6 c-43,7-67-6-67-37c0-10,22-61,49-112c48-90,54-119,31-151c-4-5-13-39-20-75c-14-77-25-94-50-80c-43,23-81,12-127-37 c-23-26-43-51-43-55c0-8-66-76-111-113c-35-30-59-60-197-245c-68-91-129-172-135-180c-7-8-21-29-31-45c-11-17-25-34-33-38 c-7-4-13-12-13-18c0-5-34-55-75-109c-41-55-79-110-85-124c-21-56-21-141,0-260c21-121,44-180,89-220c25-23,29-71,5-62 c-9,3-19,6-23,6s-32,22-62,50c-90,83-128,65-164-80c-22-90-63-182-120-270c-23-36-47-78-53-95c-13-34-31-194-24-212 c2-7,21-22,42-34c40-23,47-33,74-118c23-69,30-76,91-87c45-8,50-12,53-37c4-31,31-52,81-61c19-3,52-11,74-17c34-9,38-13,33-34 c-5-18-1-28,16-39c30-18,110-29,159-21c39,7,51,21,73,88c3,9,9,17,13,16c4,0,32-29,61-64c29-34,68-70,88-80c34-16,38-15,97,6l63,22 l28-27c35-32,64-40,114-32c127,19,149,19,189-4c33-18,51-21,109-17c38,2,101,13,140,24c40,11,76,18,81,14c6-3,13-18,16-32 c12-47,159-178,217-192c84-21,186,56,215,161c6,20,12,22,79,22c41,0,140,7,222,16c137,14,156,18,234,56c47,22,137,79,201,127 c114,84,149,123,163,183c3,15,10,38,16,52l9,25l59-26c57-24,60-25,86-8c15,10,26,27,26,39c0,19,5,21,46,18c36-3,50,0,68,17l22,21 l29-30c41-42,67-39,112,16l38,46l61-7c48-5,63-3,73,9c17,20,35,20,51,1c8-9,30-15,59-15c39,0,58-8,116-48c127-86,164-117,176-147 c16-37,26-45,61-45c21,0,26-4,21-15c-8-22,21-50,67-65c38-13,43-12,104,20c62,33,65,33,102,19c29-11,42-23,49-46 c13-40,33-61,100-108c47-32,61-37,94-32l38,5l12-48c7-27,28-70,47-97c19-26,34-50,34-54c0-3-20-19-45-37c-35-25-45-38-45-60 c0-15,5-33,10-38c11-11-1-93-22-147c-9-23-7-31,8-48c16-18,26-20,66-15l47,7l-6-34c-11-69,31-98,94-66c57,29,66,26,46-18 c-8-21-19-47-23-58s-13-33-19-48c-14-37-14-90,1-105c7-7,27-12,45-12c22,0,33-5,33-14c0-8,11-36,25-62s25-55,25-65 c0-32,36-59,79-59c32,0,44-6,70-35c17-19,35-35,41-35c16,0,12-26-12-76c-17-37-19-50-10-65c15-23,16-66,2-74c-27-17,11-125,43-125 c14,0,47-31,47-44c0-4-19-6-42-4c-38,3-44,7-68,48c-27,46-45,56-85,46c-16-4-27-18-35-43c-7-21-15-41-19-45s-29,11-56,33 s-57,45-67,50c-24,13-86,1-120-23l-28-19v35c0,61-50,94-95,62c-11-7-33-16-50-20c-65-16-88-60-100-191c-8-86,3-119,49-146l35-21 l-54-53c-54-52-66-80-44-102c17-17,4-30-50-48c-65-21-75-34-69-95c6-58,3-61-82-79c-76-16-90-32-90-100c0-92-5-101-56-101 c-97,0-115-34-69-134c14-30,25-70,25-88c0-19,6-41,13-50c31-39,221-128,275-128c33,0,66,31,83,78c10,29,15,32,50,32 c22,0,108,23,191,50c83,28,165,50,183,50c34,0,67-29,101-87c13-24,25-33,45-33c29,0,35,10,63,115c26,99,25,122-9,135 c-27,10-45,45-45,88v26l16-22c35-50,108-3,102,66c-2,31,1,36,38,56c23,12,80,50,128,84c47,34,91,62,95,62c18,0,82,85,112,146 c43,92,40,115-23,162c-29,22-62,50-73,63c-18,21-17,21,15-3c19-15,54-34,78-43c23-10,52-30,63-46c32-45,65-39,90,16 c11,25,43,82,71,127l51,82l-6,78c-5,77-5,78,19,78c13,0,46,9,74,20c40,16,59,18,93,11c53-11,209,0,229,16c12,11,19,8,38-12 c29-31,59-32,95-4c21,17,40,22,88,21c43-1,67,4,79,15c24,21,56,11,117-37c55-44,57-48,38-73c-11-16-16-16-52-4c-22,8-70,18-105,22 c-36,3-90,13-121,21c-71,18-66,18-79-7c-9-16-8-24,4-37c21-24,111-69,181-91l60-19l-59-17c-32-9-67-26-77-36c-44-44-11-73,101-90 c47-7,89-16,94-21c6-4,17-8,26-8s25-9,36-21c25-28,115-73,208-104c92-31,180-33,259-6c30,11,79,22,109,26c51,6,55,5,128-43 c125-82,194-91,248-31c24,27,27,28,33,12c13-32,9-81-8-113c-32-56-234-178-366-221c-87-28-194-88-248-139c-34-32-56-78-68-135 c-10-54-9-62,7-84c26-36,63-42,178-29c123,13,135,8,183-76c17-31,42-63,56-72c32-21,119-23,163-5c27,11,35,11,55-2 c22-14,23-20,16-69c-4-29-8-108-8-176c-1-131-3-138-57-209c-38-50-44-94-18-131c9-13,41-48,72-78c63-61,60-60,187-32 c28,6,88,12,135,14c47,1,95,3,107,3c34,1,78,48,119,126c65,125,125,172,249,200c97,21,227,60,275,82c171,78,250,124,250,148 c0,4,7,22,15,40c15,30,18,32,53,25c20-4,57-15,82-24c51-19,166-34,320-43l106-5l37,41c20,23,38,51,38,64c2,26,2,18-6,93 c-7,56-5,63,16,83c18,17,31,21,56,16c21-4,36-1,47,10c20,21,20,20-4,69c-20,41-84,89-135,102c-28,7-119-18-194-53 c-42-20-58-23-70-15c-9,7-35,24-59,38c-42,26-44,26-85,10c-23-9-58-31-77-49c-39-36-67-51-125-67c-40-12-43-11-198,28 c-40,10-87,59-87,90c0,15,7,45,15,67c36,102,13,161-82,207c-37,18-83,49-103,68c-52,49-102,90-112,90c-4,0-8,33-8,73s-5,78-11,84 c-7,7,10,12,60,15c63,5,76,10,133,51c66,47,128,77,158,77c28,0,68,45,75,84c6,31,10,34,25,26c10-6,35-10,55-10c29,0,39,5,53,30 c9,16,24,30,32,30s47,23,85,50c143,101,219,130,345,130c76,0,89,3,106,21c10,12,32,28,49,37c45,24,208,92,222,92c7,0,29-11,49-25 c40-27,59-30,98-15c26,10,40,33,71,122c17,46,18,46,69,51c145,15,176,25,215,69c60,69,80,82,144,95c80,15,212,16,275,2 c90-21,145,13,162,100c5,28,17,65,26,82c13,26,14,36,4,55c-19,34,1,274,24,293c7,6,61,17,120,25c155,20,195,50,239,178 c37,106,32,103,114,83c54-13,104-16,234-13c158,3,166,4,211,30c54,33,88,92,88,157c0,30,7,52,25,75c27,35,55,115,55,157 c0,18-8,29-26,38c-22,10-25,16-20,39c19,84,19,94-9,165c-52,138-57,147-82,153c-21,6-23,10-17,43c16,86,16,86,68,89 c78,5,146,59,146,116c0,48-22,63-67,47c-28-11-40-11-58-1c-27,15-89,97-78,103c5,3,33,12,63,20c62,18,84,37,130,116 c17,30,42,63,55,73c57,44,54,169-5,238l-29,34l35,38c19,21,34,47,34,59c0,31-58,79-96,79c-30,0-93-38-123-73c-7-9-17-17-22-17 c-10,0-99,115-99,128c0,5-15,26-33,47c-30,33-37,37-93,39c-68,4-91,14-151,70l-42,39l-81-18l-81-18l-36,36c-19,20-41,37-49,37 c-7,0-28,18-45,40c-31,39-34,40-92,40c-75,0-118,21-164,79c-53,67-71,81-108,81c-49,0-75-37-75-109c-1-31-7-67-14-80l-13-23l-19,24 c-10,13-54,50-96,81c-43,32-89,72-104,91c-30,37-64,119-64,154c0,15-14,32-44,54c-33,22-51,46-68,85c-29,66-48,73-119,40 c-30-13-75-34-101-46c-26-11-71-26-100-32s-91-24-138-40c-102-35-161-37-214-8c-43,23-94,20-116-6c-7-8-15-15-19-15s-19,29-35,65 c-16,38-43,78-64,96c-33,29-38,31-86,24c-28-4-78-9-110-10c-40-2-68-10-87-24c-16-12-32-21-36-20c-8,0-61,65-116,141 c-39,53-45,99-18,134c31,39,26,84-19,180c-22,47-40,91-40,98s9,21,20,31s20,26,20,36c0,18-53,69-72,69c-6,0-30,10-53,21 c-46,23-61,46-71,110c-9,56-38,69-104,46c-72-26-131-22-198,13c-84,43-166,62-215,49c-55-15-67-2-54,56c8,35,7,53-6,85 c-9,23-11,42-6,46c15,9,10,57-9,86c-10,15-35,42-56,60l-38,32l87,42c97,48,114,65,115,110c0,26-15,47-80,115 c-75,80-122,154-136,216c-3,16-9,46-13,69c-8,43-82,162-130,208c-32,30-146,76-189,76c-15,0-38-9-52-20c-34-26-40-25-124,15 C7763,10430,7712,10432,7678,10392z M8398,3884c20-20,51-43,67-50c29-13,29-13-27-14c-52,0-62,3-97,35c-21,19-44,35-50,35 c-15,0-14,17,2,23C8329,3928,8362,3919,8398,3884z M8580,3891c0-5-7-14-15-21c-13-10-15-9-15,9c0,12,6,21,15,21 C8573,3900,8580,3896,8580,3891z M8530,3825c-7-9-15-13-17-11c-7,7,7,26,19,26C8538,3840,8538,3834,8530,3825z"></path> </g> <circle class="st1" cx="238.8" cy="382.8" r="24.8"></circle> <circle class="st1" cx="847.7" cy="633.2" r="25"></circle> <circle class="st1" cx="883.2" cy="608.3" r="17.9"></circle> <circle class="st1" cx="865.3" cy="708.4" r="17.9"></circle> <circle class="st1" cx="728.7" cy="418.3" r="17.9"></circle> <circle class="st1" cx="679.5" cy="527.5" r="17.9"></circle> <circle class="st1" cx="698.5" cy="542.3" r="23.6"></circle> <circle class="st1" cx="220.8" cy="407.5" r="17.9"></circle> <circle class="st1" cx="263.5" cy="400.4" r="17.9"></circle> <circle class="st1" cx="252" cy="425.5" r="17.9"></circle> <circle class="st1" cx="165.9" cy="565.9" r="17.9"></circle> <circle class="st1" cx="199.3" cy="569.2" r="21.2"></circle> <circle class="st1" cx="370.3" cy="535" r="25.5"></circle> <circle class="st1" cx="395.8" cy="569.2" r="17.9"></circle> <circle class="st1" cx="395" cy="538.1" r="17.9"></circle> <circle class="st1" cx="566.4" cy="757.6" r="17.9"></circle> <circle class="st1" cx="578" cy="780.1" r="22.6"></circle> <circle class="st1" cx="764.5" cy="739.7" r="17.9"></circle> <circle class="st1" cx="777" cy="741.2" r="17.9"></circle> <circle class="st1" cx="844.6" cy="436.2" r="17.9"></circle> <circle class="st1" cx="865.3" cy="425.5" r="20.7"></circle> <circle class="st1" cx="562.7" cy="459.6" r="23.3"></circle> <circle class="st1" cx="566.4" cy="608.3" r="17.9"></circle> <circle class="st1" cx="692.8" cy="648.9" r="17.9"></circle> <circle class="st1" cx="777" cy="315.3" r="17.9"></circle> <circle class="st1" cx="826.7" cy="520.2" r="17.9"></circle> <circle class="st1" cx="412.9" cy="436.2" r="17.9"></circle> </svg> 