<svg width="200" height="41" viewBox="0 0 200 41" fill="none" xmlns="http://www.w3.org/2000/svg">
    <path d="M165.155 26.5919L175.394 0H178.833L163.244 40.6521L146.484 0H153.986L165.155 26.5919ZM175.28 34.6154L177.305 31.6607C178.094 33.5838 180.119 35.8125 181.329 36.6276C182.526 37.4427 184.042 37.8502 185.863 37.8502C187.684 37.8502 189.251 37.2262 190.664 35.9654C192.078 34.7045 192.791 32.8451 192.791 30.9475C192.791 27.891 191.237 25.5604 188.143 23.9684C185.239 22.6439 182.348 21.3321 179.482 20.0076C176.337 18.0336 174.77 15.1172 174.77 11.2837C174.77 8.13805 175.929 5.47631 178.234 3.28579C180.527 1.108 183.481 0 187.085 0C189.531 0 191.81 0.611309 193.95 1.83393C196.077 3.05655 197.656 4.73765 198.662 6.86449L196.612 9.52623C195.758 7.06826 194.319 5.20886 193.199 4.31737C191.836 3.27305 190.193 2.75089 188.257 2.75089C186.321 2.75089 184.844 3.40041 183.698 4.69944C182.552 5.99847 181.979 7.85787 181.979 9.71727C181.979 12.1243 183.532 14.0856 186.627 15.5884C189.493 16.9893 192.384 18.3647 195.287 19.7147C198.433 21.8925 199.999 24.9236 199.999 28.8462C199.999 32.2211 198.726 35.0229 196.191 37.2517C193.657 39.4804 190.715 40.5884 187.378 40.5884C184.666 40.5884 182.284 40.1299 180.246 39.2002C178.209 38.2705 176.553 36.7422 175.28 34.6026" fill="#409FFF"/>
    <path d="M18.6704 26.5919L28.9098 0H32.3357L16.7601 40.6648L0 0H7.50127L18.6704 26.5919Z" fill="#409FFF"/>
    <path d="M50.4221 12.7994V14.6588H40.2845C39.8643 14.6588 39.5459 14.7479 39.3294 14.9262C39.1129 15.0918 39.011 15.4102 39.011 15.8814V23.8666H48.3971V26.3628H39.011V34.6409C39.011 35.8381 39.686 36.4367 41.0359 36.4367H51.1098V38.2961H37.7374C36.4257 38.2961 35.4195 37.9522 34.7318 37.2517C34.0314 36.564 33.6875 35.4178 33.6875 33.8386V18.0337C33.6875 15.9451 34.0696 14.5569 34.8464 13.8692C35.6233 13.1687 36.7823 12.8248 38.3233 12.8248H50.4221V12.7994ZM75.8933 17.779L73.69 18.8743C72.9514 17.3715 72.0089 16.1998 70.85 15.3465C69.6911 14.4932 68.3411 14.0729 66.8001 14.0729C64.253 14.0729 62.3426 15.2701 61.0691 17.6644C59.9865 19.6639 59.4516 22.1855 59.4516 25.1911C59.4516 28.4769 59.9101 31.1004 60.8398 33.0617C62.1134 35.7617 64.202 37.1117 67.093 37.1117C68.7868 37.1117 70.2769 36.5386 71.5505 35.3669C72.2891 34.7174 73.2316 33.4947 74.3905 31.7245L76.3008 32.5396C75.2183 34.5391 73.9702 36.0546 72.5438 37.0607C70.6844 38.3725 68.4302 39.0347 65.7685 39.0347C62.1388 39.0347 59.146 37.7739 56.7899 35.265C54.4338 32.7561 53.2621 29.5085 53.2621 25.535C53.2621 21.8671 54.4211 18.7596 56.739 16.2125C59.2097 13.5126 62.3171 12.1626 66.0614 12.1626C68.3411 12.1626 70.3024 12.7102 71.9707 13.78C73.2061 14.5951 74.5179 15.9196 75.906 17.779M77.4725 14.6588V12.7994H93.2265V14.6588H88.0176V38.2833H82.6941V14.6588H77.4853H77.4725ZM107.758 12.1626C111.235 12.1626 114.317 13.5126 117.029 16.2125C119.729 18.9125 121.079 22.0454 121.079 25.5987C121.079 29.534 119.92 32.7179 117.602 35.1504C115.132 37.7357 111.846 39.0347 107.758 39.0347C104.281 39.0347 101.199 37.6848 98.4863 34.9721C95.7863 32.2721 94.4364 29.1519 94.4364 25.5987C94.4364 21.6634 95.5953 18.4795 97.9132 16.047C100.384 13.4616 103.657 12.1626 107.758 12.1626ZM107.758 14.0729C105.873 14.0729 104.243 15.0791 102.893 17.0913C101.428 19.2563 100.69 22.0964 100.69 25.5987C100.69 29.101 101.428 31.9028 102.893 34.1061C104.243 36.1183 105.86 37.1117 107.758 37.1117C109.655 37.1117 111.298 36.0673 112.712 33.9914C114.126 31.9028 114.826 29.1137 114.826 25.5987C114.826 22.0836 114.126 19.3327 112.712 17.2314C111.298 15.13 109.655 14.0729 107.758 14.0729ZM130.797 38.2833H125.524V12.7994H136.642C138.845 12.7994 140.679 13.4234 142.144 14.6588C143.609 15.8941 144.347 17.5498 144.347 19.6384C144.347 21.4851 143.889 22.8732 142.959 23.8029C142.182 24.5798 140.819 25.2675 138.845 25.8916L145.735 38.2833H139.597L133.229 25.5477H133.802C135.623 25.5477 136.935 25.051 137.776 24.0704C138.603 23.0897 139.024 21.6634 139.024 19.8167C139.024 18.3521 138.642 17.1677 137.865 16.2889C136.935 15.2064 135.432 14.6715 133.344 14.6715H130.797V38.2961V38.2833Z" fill="#409FFF"/>
</svg>
